<svg xmlns="http://www.w3.org/2000/svg" width="720" height="840" viewBox="0 0 720 840" role="img" aria-label="Placeholder para imagem institucional da Pró-Mulher">
  <defs>
    <linearGradient id="heroBg" x1="0" y1="0" x2="1" y2="1">
      <stop offset="0" stop-color="#f7f2ea"/>
      <stop offset="0.48" stop-color="#d8c8b1"/>
      <stop offset="1" stop-color="#7f9484"/>
    </linearGradient>
    <linearGradient id="gold" x1="0" y1="0" x2="1" y2="1">
      <stop offset="0" stop-color="#e0bd74"/>
      <stop offset="1" stop-color="#9a7430"/>
    </linearGradient>
  </defs>
  <rect width="720" height="840" rx="18" fill="url(#heroBg)"/>
  <rect x="54" y="54" width="612" height="732" rx="14" fill="#10100f" opacity="0.13"/>
  <path d="M118 610C196 502 259 449 360 449s164 53 242 161v176H118V610Z" fill="#10100f" opacity="0.26"/>
  <circle cx="360" cy="318" r="116" fill="#f8f4ec" opacity="0.74"/>
  <path d="M283 330c32 52 122 52 154 0" fill="none" stroke="#b98782" stroke-width="14" stroke-linecap="round" opacity="0.75"/>
  <path d="M244 188c68-88 178-88 246 0" fill="none" stroke="url(#gold)" stroke-width="7" stroke-linecap="round"/>
  <rect x="134" y="674" width="452" height="64" rx="8" fill="#10100f" opacity="0.66"/>
  <text x="360" y="704" text-anchor="middle" font-family="Segoe UI, Arial, sans-serif" font-size="18" font-weight="700" fill="#e0bd74">ESPAÇO PARA FOTO REAL</text>
  <text x="360" y="730" text-anchor="middle" font-family="Segoe UI, Arial, sans-serif" font-size="14" fill="#f8f4ec">Substituir por imagem institucional da clínica</text>
</svg>
