<svg xmlns="http://www.w3.org/2000/svg" viewBox="0 0 32 32">
  <symbol id="whatsapp-icon" viewBox="0 0 32 32">
    <path fill="currentColor" d="M16.02 3.2A12.6 12.6 0 0 0 5.16 22.18L3.6 28.8l6.78-1.52A12.6 12.6 0 1 0 16.02 3.2Zm0 2.35a10.25 10.25 0 0 1 8.72 15.63 10.25 10.25 0 0 1-13.75 3.64l-.38-.22-3.74.84.86-3.62-.25-.4A10.25 10.25 0 0 1 16.02 5.55Zm-4.15 5.15c-.24 0-.62.08-.95.45-.33.36-1.25 1.22-1.25 2.98 0 1.75 1.28 3.45 1.46 3.68.18.24 2.48 3.96 6.13 5.38 3.03 1.18 3.65.94 4.31.88.66-.06 2.13-.87 2.43-1.7.3-.84.3-1.55.21-1.7-.09-.15-.33-.24-.69-.42-.36-.18-2.13-1.05-2.46-1.17-.33-.12-.57-.18-.81.18-.24.36-.93 1.17-1.14 1.41-.21.24-.42.27-.78.09-.36-.18-1.52-.56-2.9-1.78-1.07-.96-1.8-2.14-2.01-2.5-.21-.36-.02-.56.16-.74.16-.16.36-.42.54-.63.18-.21.24-.36.36-.6.12-.24.06-.45-.03-.63-.09-.18-.81-1.95-1.11-2.67-.29-.7-.59-.61-.81-.62h-.66Z"/>
  </symbol>
  <use href="#whatsapp-icon"/>
</svg>
